HIERARCHY
ROOT simHips
{
  OFFSET -278.161 83.7234 -254.972
  CHANNELS 6 Xposition Yposition Zposition Zrotation Xrotation Yrotation
  JOINT simSpine
  {
    OFFSET -0.000355721 21.3001 -0.016921
    CHANNELS 3 Zrotation Xrotation Yrotation
    JOINT simLeftArm
    {
      OFFSET 13.5181 21.3012 0
      CHANNELS 3 Zrotation Xrotation Yrotation
      JOINT simLeftForeArm
      {
        OFFSET 24.5783 0 0
        CHANNELS 3 Zrotation Xrotation Yrotation
        JOINT simLeftHand
        {
          OFFSET 24.5783 0 0
          CHANNELS 3 Zrotation Xrotation Yrotation
          End Site
          {
            OFFSET 7.32568 1.52588e-005 0.0169305
          }
        }
      }
    }
    JOINT simHead
    {
      OFFSET 0 27.4458 -0.00489235
      CHANNELS 3 Zrotation Xrotation Yrotation
      End Site
      {
        OFFSET 0 0 0
      }
    }
    JOINT simRightArm
    {
      OFFSET -13.5174 21.3012 0
      CHANNELS 3 Zrotation Xrotation Yrotation
      JOINT simRightForeArm
      {
        OFFSET -24.5783 0 0
        CHANNELS 3 Zrotation Xrotation Yrotation
        JOINT simRightHand
        {
          OFFSET -24.5783 0 0
          CHANNELS 3 Zrotation Xrotation Yrotation
          End Site
          {
            OFFSET -7.32568 1.52588e-005 0.0169305
          }
        }
      }
    }
  }
  JOINT simRightUpLeg
  {
    OFFSET -8.44614 -9.41038 0.835684
    CHANNELS 3 Zrotation Xrotation Yrotation
    JOINT simRightLeg
    {
      OFFSET 0 -40.9639 0
      CHANNELS 3 Zrotation Xrotation Yrotation
      JOINT simRightFoot
      {
        OFFSET 0 -40.9639 0
        CHANNELS 3 Zrotation Xrotation Yrotation
        End Site
        {
          OFFSET 0.50614 -9.67405 14.6709
        }
      }
    }
  }
  JOINT simLeftUpLeg
  {
    OFFSET 8.44614 -9.41038 0.835684
    CHANNELS 3 Zrotation Xrotation Yrotation
    JOINT simLeftLeg
    {
      OFFSET 0 -40.9639 0
      CHANNELS 3 Zrotation Xrotation Yrotation
      JOINT simLeftFoot
      {
        OFFSET 0 -40.9639 0
        CHANNELS 3 Zrotation Xrotation Yrotation
        End Site
        {
          OFFSET -0.50614 -9.67405 14.6709
        }
      }
    }
  }
}
MOTION
Frames:	10
Frame Time:	0.0333333
279.981 99.5261 -465.1 0 4.26024e-005 -0 0.00647765 6.58827e-006 0.00011792 -6.83019e-006 -1.70755e-006 -1.53679e-005 5.97642e-006 1.70755e-006 2.50273e-005 1.06722e-006 -1.80118e-013 -9.76607e-006 -3.41509e-006 6.06643e-021 2.42657e-020 6.83019e-006 -8.53773e-007 5.12264e-006 -6.83313e-006 -0.0113048 -1.49154e-005 8.53773e-007 6.83019e-006 9.79275e-006 -0.853059 7.02578 0.0525218 -0.0087438 0.0887635 0.000236281 0.851037 -7.11454 0.053059 3.03182 1.57894 -0.0788666 -7.98819e-005 2.80598 -0.02231 -3.03675 -4.38413 -0.131134 
279.981 99.5261 -465.108 0.0039137 4.26024e-005 -0.00252546 0.00647765 6.58827e-006 0.00011792 -0.00288152 -0.0524155 0.0241929 0.0130875 -0.0150249 -0.0382524 -0.0794794 -0.0692796 -0.0295571 0.0625571 0.023092 0.0343971 0.0308475 0.030148 0.0300157 -0.00852478 -0.0113048 0.0132342 -0.0990427 -0.00777822 0.0420518 -0.858463 7.05859 0.0962501 -0.00874246 0.00212261 -0.026488 0.855825 -7.07092 0.0332801 3.02595 1.5339 -0.111741 2.01693e-005 2.8801 0.000548986 -3.04928 -4.42328 -0.114995 
279.979 99.5263 -465.126 0.0132911 -0.00458255 -0.0103165 0.00647765 6.58827e-006 0.00011792 -0.0126676 -0.111397 0.058677 0.032153 -0.0328421 -0.0778912 -0.213917 -0.153678 -0.0904857 0.114311 0.0704853 0.0761231 0.0587046 -0.0638674 0.0658058 0.0187057 -0.0113048 0.0468709 -0.188652 0.102116 0.101179 -0.868549 7.00288 0.130465 -0.00869056 0.0805513 -0.0376086 0.872245 -7.08064 0.0242182 3.02032 1.58175 -0.0768548 -0.00938362 2.77227 -0.0174484 -3.0391 -4.36488 -0.127925 
279.978 99.5262 -465.139 0.0202329 -0.0338722 -0.0167194 0.00647765 6.58827e-006 0.00011792 -0.0304493 -0.117404 0.0630183 0.00350324 -0.0262891 -0.0978174 -0.254726 -0.115368 -0.145284 0.133073 0.113186 0.0501973 0.0908478 0.0152384 0.107449 0.0129859 -0.0113048 0.0758976 -0.260439 0.12957 0.134278 -0.880747 6.99056 0.120484 -0.00868207 0.158171 -0.0222313 0.892749 -7.12085 0.0291372 3.00938 1.59181 -0.0888306 -0.012549 2.8079 -0.0101825 -3.02762 -4.379 -0.123669 
279.977 99.5262 -465.155 0.0280659 -0.0401737 -0.00787391 0.00647765 6.58827e-006 0.00011792 -0.0603186 -0.291017 0.0829876 -0.063037 -0.00452406 -0.118286 -0.308975 0.0847605 -0.196528 0.150077 0.144981 -0.00433345 0.111079 0.107371 0.135028 0.0268256 -0.00721561 0.0695249 -0.370111 0.205053 0.167084 -0.88742 7.04494 0.107481 -0.0106444 0.0694785 -0.0154841 0.899435 -7.07051 0.0371931 2.99767 1.5833 -0.16024 -0.0115105 2.80617 0.0330134 -2.98828 -4.3448 -0.096468 
279.976 99.5269 -465.168 0.0309797 -0.0629171 0.00327791 0.00647765 6.58827e-006 0.00011792 -0.11217 -0.233676 0.053151 -0.0428387 -0.00791153 -0.099315 -0.396015 0.0333437 -0.227381 0.122483 0.175436 -0.00545073 0.126288 0.133397 0.136672 0.0462101 -0.000381491 0.0546117 -0.430163 0.315244 0.20259 -0.883908 7.03476 0.0906369 -0.0156843 0.114401 -0.00233026 0.947588 -7.11883 0.0407058 2.99996 1.5959 -0.165901 -0.00269656 2.81759 0.0264683 -3.06078 -4.37046 -0.0938985 
279.976 99.5278 -465.184 0.0320659 -0.074466 0.0250467 0.00647765 6.58827e-006 0.00011792 -0.134932 -0.250603 0.0431416 -0.0787345 0.0136399 -0.0717037 -0.45793 0.102803 -0.191879 0.152993 0.1865 0.0143817 0.120832 0.107381 0.143574 0.127247 0.0260818 -0.00010694 -0.499396 0.280459 0.271707 -0.873942 7.03723 0.0516248 -0.0213842 0.12421 -0.00780218 0.902839 -7.07867 0.0418879 2.99182 1.58286 -0.20275 0.00018186 2.83082 0.0466879 -2.97244 -4.31767 -0.0884371 
279.972 99.5282 -465.197 0.0318954 -0.0888874 0.0477137 0.00647765 6.58827e-006 0.00011792 -0.154388 -0.233651 0.043005 -0.0683755 0.0188599 -0.034451 -0.523524 0.0842765 -0.201285 0.185799 0.176378 0.0295248 0.1466 0.0943209 0.170528 0.220935 0.062688 -1.76703e-005 -0.572995 0.148117 0.297462 -0.875753 7.00892 0.0893346 -0.0224834 0.170354 -0.0392383 0.924184 -7.09573 0.0176155 3.00236 1.60659 -0.200924 -0.00587352 2.79721 0.0224802 -3.04212 -4.33163 -0.0993468 
279.964 99.5284 -465.207 0.0310421 -0.107161 0.0660306 0.00647765 6.58827e-006 0.00011792 -0.143808 -0.269451 0.0515809 -0.0892028 0.0259786 -0.0395432 -0.553492 0.0927676 -0.130226 0.20339 0.187788 0.0232241 0.16887 0.160114 0.168491 0.293868 0.0934504 2.3497e-005 -0.466082 0.187248 0.300263 -0.8741 7.0211 0.0417268 -0.0129781 0.188894 -0.0186093 0.912987 -7.09711 0.0343465 3.01566 1.62267 -0.174776 -0.0169874 2.79072 -0.00424201 -3.02526 -4.32031 -0.120314 
279.956 99.5283 -465.214 0.0300364 -0.107068 0.0712537 0.00647765 6.58827e-006 0.00011792 -0.158958 -0.249006 0.0666402 -0.0365101 0.00713778 -0.0298739 -0.59852 0.0613912 -0.145944 0.221469 0.181307 0.0384802 0.209932 0.202318 0.143665 0.354675 0.12553 5.23243e-005 -0.452679 0.254452 0.346786 -0.859885 7.0427 0.0831068 -0.0177672 0.140507 -0.0563368 0.846074 -7.04226 0.0157105 3.02233 1.60757 -0.187584 -0.0237915 2.7946 -0.00578747 -3.04125 -4.31718 -0.119711 
